<?xml version="1.0" standalone="no"?><!DOCTYPE svg PUBLIC "-//W3C//DTD SVG 1.1//EN" "http://www.w3.org/Graphics/SVG/1.1/DTD/svg11.dtd"><svg class="icon" width="200px" height="200.00px" viewBox="0 0 1024 1024" version="1.1" xmlns="http://www.w3.org/2000/svg"><path d="M73.1 289.4h-20V50.8h238.6v20H73.1zM291.7 973.1H53.1V734.5h20V953.1h218.6zM975.4 289.4h-20V70.8H736.8v-20h238.6zM975.4 973.1H736.8v-20h218.6V734.5h20z" fill="#CFCFCF" /><path d="M514.3 780.9L281.7 646.6V378.1l232.6-134.2 232.5 134.3v268.5L514.3 780.9zM301.7 635l212.5 122.7 212.5-122.7V389.7L514.3 266.9 301.7 389.7v245.3z" fill="#47B5B5" /><path d="M514.3 522.3c-1.7 0-3.5-0.4-5-1.3L286.7 392.6c-3.1-1.8-5-5.1-5-8.7s1.9-6.9 5-8.7l222.5-128.5c3.1-1.8 6.9-1.8 10 0l222.5 128.5c3.1 1.8 5 5.1 5 8.7s-1.9 6.9-5 8.7L519.3 521c-1.6 0.9-3.3 1.3-5 1.3zM311.7 383.9l202.5 116.9 202.6-116.9-202.5-117-202.6 117z" fill="#47B5B5" /><path d="M504.3 512.3h20v257h-20z" fill="#47B5B5" /></svg>